<?xml version="1.0" encoding="UTF-8" standalone="no"?>
<!-- Created with Inkscape (http://www.inkscape.org/) -->
<svg
   xmlns:dc="http://purl.org/dc/elements/1.1/"
   xmlns:cc="http://web.resource.org/cc/"
   xmlns:rdf="http://www.w3.org/1999/02/22-rdf-syntax-ns#"
   xmlns:svg="http://www.w3.org/2000/svg"
   xmlns="http://www.w3.org/2000/svg"
   xmlns:xlink="http://www.w3.org/1999/xlink"
   xmlns:sodipodi="http://sodipodi.sourceforge.net/DTD/sodipodi-0.dtd"
   xmlns:inkscape="http://www.inkscape.org/namespaces/inkscape"
   width="346.38953"
   height="203.92552"
   id="svg5992"
   sodipodi:version="0.32"
   inkscape:version="0.45"
   version="1.0"
   sodipodi:docname="divers_coffres.svg"
   sodipodi:docbase="C:\Documents and Settings\user\Bureau\svg a mettre dans ma galerie"
   inkscape:output_extension="org.inkscape.output.svg.inkscape"
   sodipodi:modified="TRUE"
   inkscape:export-filename="C:\Documents and Settings\user\Bureau\svg a mettre dans ma galerie\divers_coffres.png"
   inkscape:export-xdpi="41.571697"
   inkscape:export-ydpi="41.571697">
  <defs
     id="defs5994">
    <radialGradient
       inkscape:collect="always"
       xlink:href="#linearGradient10523"
       id="radialGradient5984"
       gradientUnits="userSpaceOnUse"
       gradientTransform="matrix(0.199663,3.344597e-2,0,0.188277,1658.365,173.483)"
       cx="2442.6841"
       cy="423.84579"
       fx="2442.6841"
       fy="423.84579"
       r="82.64563" />
    <linearGradient
       inkscape:collect="always"
       xlink:href="#linearGradient10506"
       id="linearGradient5982"
       gradientUnits="userSpaceOnUse"
       gradientTransform="matrix(-0.992589,0.148657,2.507516e-2,1.003711,4410.059,-275.649)"
       x1="2152.9304"
       y1="203.93481"
       x2="2190.9917"
       y2="272.80804" />
    <linearGradient
       inkscape:collect="always"
       xlink:href="#linearGradient10480"
       id="linearGradient5980"
       gradientUnits="userSpaceOnUse"
       gradientTransform="matrix(-0.992589,0.148657,2.507516e-2,1.003711,4407.911,-275.3273)"
       x1="2192.5237"
       y1="178.97701"
       x2="2246.7268"
       y2="251.95915" />
    <linearGradient
       id="linearGradient10506">
      <stop
         style="stop-color:#412407;stop-opacity:1;"
         offset="0"
         id="stop10508" />
      <stop
         style="stop-color:black;stop-opacity:1;"
         offset="1"
         id="stop10510" />
    </linearGradient>
    <linearGradient
       inkscape:collect="always"
       xlink:href="#linearGradient10506"
       id="linearGradient5990"
       gradientUnits="userSpaceOnUse"
       gradientTransform="matrix(4.990633e-3,0.593274,-0.373824,0.189216,1449.62,49.77563)"
       x1="2152.9304"
       y1="203.93481"
       x2="2190.9917"
       y2="272.80804" />
    <linearGradient
       id="linearGradient10480">
      <stop
         style="stop-color:#61360a;stop-opacity:1;"
         offset="0"
         id="stop10482" />
      <stop
         style="stop-color:#050200;stop-opacity:1;"
         offset="1"
         id="stop10484" />
    </linearGradient>
    <linearGradient
       inkscape:collect="always"
       xlink:href="#linearGradient10480"
       id="linearGradient5988"
       gradientUnits="userSpaceOnUse"
       gradientTransform="matrix(-0.592283,0.126776,-0.19895,-0.572326,2733.26,1176.607)"
       x1="2295.0488"
       y1="139.49115"
       x2="2243.8281"
       y2="219.2989" />
    <linearGradient
       id="linearGradient10523">
      <stop
         style="stop-color:#dadada;stop-opacity:1;"
         offset="0"
         id="stop10525" />
      <stop
         style="stop-color:#888;stop-opacity:1;"
         offset="1"
         id="stop10527" />
    </linearGradient>
    <radialGradient
       inkscape:collect="always"
       xlink:href="#linearGradient10523"
       id="radialGradient5986"
       gradientUnits="userSpaceOnUse"
       gradientTransform="matrix(0.120495,2.018431e-2,0,0.113623,1046.232,1303.529)"
       cx="2442.6841"
       cy="423.84579"
       fx="2442.6841"
       fy="423.84579"
       r="82.64563" />
  </defs>
  <sodipodi:namedview
     id="base"
     pagecolor="#ffffff"
     bordercolor="#666666"
     borderopacity="1.0"
     inkscape:pageopacity="0.0"
     inkscape:pageshadow="2"
     inkscape:zoom="1.8154313"
     inkscape:cx="210.82473"
     inkscape:cy="83.944069"
     inkscape:document-units="px"
     inkscape:current-layer="layer1"
     inkscape:window-width="1280"
     inkscape:window-height="725"
     inkscape:window-x="0"
     inkscape:window-y="25" />
  <metadata
     id="metadata5997">
    <rdf:RDF>
      <cc:Work
         rdf:about="">
        <dc:format>image/svg+xml</dc:format>
        <dc:type
           rdf:resource="http://purl.org/dc/dcmitype/StillImage" />
      </cc:Work>
    </rdf:RDF>
  </metadata>
  <g
     inkscape:label="Calque 1"
     inkscape:groupmode="layer"
     id="layer1"
     transform="translate(-61.502862,-141.82799)">
    <path
       style="fill:#492f17;fill-opacity:1;fill-rule:evenodd;stroke:#000000;stroke-width:6.37404823;stroke-linecap:round;stroke-linejoin:round;stroke-miterlimit:4;stroke-dasharray:none;stroke-opacity:1"
       d="M 229.73219,145.01501 L 128.11729,145.84021 L 112.26759,210.51981 L 113.63339,210.69041 L 65.372786,245.69091 L 64.803686,245.60551 L 64.803686,246.08921 L 64.689886,246.17461 L 64.803686,246.20301 L 65.059786,273.71961 L 64.775186,273.66271 L 65.088186,294.17921 L 65.258986,294.20761 C 65.114086,296.23041 65.210986,300.54501 65.372786,304.70761 L 65.458186,313.69961 L 81.677786,317.00051 L 81.677786,316.88661 L 158.19489,332.87881 L 158.25179,333.81771 L 174.10149,339.48041 L 174.07309,338.65521 L 183.26419,330.26081 L 207.16699,310.00051 L 207.19539,310.28491 L 219.31739,299.98411 L 213.00029,223.41011 L 213.59779,222.89791 L 214.79309,223.04021 L 214.90689,222.38571 C 261.99789,214.03701 270.88149,160.17661 229.64679,145.47031 L 229.73219,145.01501 z M 77.665586,240.48351 L 74.336286,242.78831 L 74.279386,242.78831 L 77.665586,240.48351 z "
       id="path5651"
       sodipodi:nodetypes="ccccccccccccccccccccccccccccccccccc" />
    <g
       id="g10565"
       transform="matrix(1.09905,0,0,1.09905,-2248.7769,-94.350706)">
      <g
         transform="matrix(-0.992589,0.148657,2.507516e-2,1.003711,4410.059,-275.649)"
         id="g10567">
        <path
           style="fill:#492f17;fill-opacity:1;fill-rule:evenodd;stroke:none;stroke-width:1px;stroke-linecap:butt;stroke-linejoin:miter;stroke-opacity:1"
           d="M 2193.8038,238.64448 L 2281.4258,215.49543 L 2281.4258,259.68908 L 2232.0666,280.35105 L 2193.8038,238.64448 z "
           id="path10569"
           sodipodi:nodetypes="ccccc" />
        <rect
           transform="matrix(0.828449,0.560064,0,1,0,0)"
           inkscape:transform-center-x="-3.2311253"
           inkscape:transform-center-y="15.964748"
           y="-1198.3636"
           x="2643.5215"
           height="26.708775"
           width="47.90303"
           id="rect10571"
           style="opacity:1;color:#000000;fill:#85552b;fill-opacity:1;fill-rule:evenodd;stroke:none;stroke-width:1.03762949;stroke-linecap:round;stroke-linejoin:round;marker:none;marker-start:none;marker-mid:none;marker-end:none;stroke-miterlimit:4;stroke-dasharray:none;stroke-dashoffset:0;stroke-opacity:1;visibility:visible;display:inline;overflow:visible" />
        <rect
           transform="matrix(0.850605,0.525805,0,1,0,0)"
           inkscape:transform-center-x="-3.2360271"
           inkscape:transform-center-y="14.61411"
           y="-1093.765"
           x="2576.1519"
           height="24.231506"
           width="46.20126"
           id="rect10573"
           style="opacity:1;color:#000000;fill:#684322;fill-opacity:1;fill-rule:evenodd;stroke:none;stroke-width:0.9803158;stroke-linecap:round;stroke-linejoin:round;marker:none;marker-start:none;marker-mid:none;marker-end:none;stroke-miterlimit:4;stroke-dasharray:none;stroke-dashoffset:0;stroke-opacity:1;visibility:visible;display:inline;overflow:visible" />
        <rect
           style="opacity:1;color:#000000;fill:#784d27;fill-opacity:1;fill-rule:evenodd;stroke:none;stroke-width:0.9803158;stroke-linecap:round;stroke-linejoin:round;marker:none;marker-start:none;marker-mid:none;marker-end:none;stroke-miterlimit:4;stroke-dasharray:none;stroke-dashoffset:0;stroke-opacity:1;visibility:visible;display:inline;overflow:visible"
           id="rect10575"
           width="45.677303"
           height="23.925718"
           x="2578.0959"
           y="-1117.3481"
           inkscape:transform-center-y="14.614086"
           inkscape:transform-center-x="-3.235976"
           transform="matrix(0.850605,0.525805,0,1,0,0)" />
        <path
           style="fill:#5e3c1e;fill-opacity:1;fill-rule:evenodd;stroke:none;stroke-width:1px;stroke-linecap:butt;stroke-linejoin:miter;stroke-opacity:1"
           d="M 2230.1535,334.68438 L 2328.8718,299.48251 C 2328.8718,299.48251 2329.4457,280.925 2328.6805,280.925 C 2327.9152,280.925 2229.3882,314.40504 2229.3882,314.40504 L 2230.1535,334.68438 z "
           id="path10577"
           sodipodi:nodetypes="ccscc" />
        <path
           style="fill:#674221;fill-opacity:1;fill-rule:evenodd;stroke:none;stroke-width:1px;stroke-linecap:butt;stroke-linejoin:miter;stroke-opacity:1"
           d="M 2230.3448,314.59635 L 2329.0631,281.88157 L 2328.8718,263.32406 L 2230.1534,293.55175 L 2230.3448,314.59635 z "
           id="path10579"
           sodipodi:nodetypes="ccccc" />
        <path
           sodipodi:nodetypes="cccc"
           style="fill:#1f130a;fill-opacity:1;fill-rule:evenodd;stroke:none;stroke-width:1px;stroke-linecap:butt;stroke-linejoin:miter;stroke-opacity:1"
           d="M 2280.6605,216.26069 L 2280.6605,267.72429 L 2325.2368,239.79238 L 2280.6605,216.26069 z "
           id="path10581" />
        <path
           style="fill:#794e27;fill-opacity:1;fill-rule:evenodd;stroke:none;stroke-width:1px;stroke-linecap:butt;stroke-linejoin:miter;stroke-opacity:1"
           d="M 2230.1535,294.89096 L 2231.1101,278.62922 L 2327.1499,250.6973 L 2325.8108,272.69848 L 2230.1535,294.89096 z "
           id="path10583"
           sodipodi:nodetypes="ccccc" />
        <path
           style="fill:#6b4523;fill-opacity:1;fill-rule:evenodd;stroke:none;stroke-width:1px;stroke-linecap:butt;stroke-linejoin:miter;stroke-opacity:1"
           d="M 2231.4926,279.5858 L 2231.684,263.32406 L 2327.7239,238.26186 L 2327.1499,252.99308 L 2231.4926,279.5858 z "
           id="path10585"
           sodipodi:nodetypes="ccccc" />
      </g>
      <path
         sodipodi:nodetypes="ccccc"
         id="path10587"
         d="M 2239.8961,288.73549 L 2230.3936,297.48286 L 2234.6373,368.16219 L 2245.6492,358.80325 L 2239.8961,288.73549 z "
         style="fill:#412407;fill-opacity:1;fill-rule:evenodd;stroke:none;stroke-width:1px;stroke-linecap:butt;stroke-linejoin:miter;stroke-opacity:1" />
      <path
         sodipodi:nodetypes="ccccc"
         id="path10589"
         d="M 2209.9623,315.09489 L 2200.4598,323.84229 L 2204.4992,393.97397 L 2215.1217,384.28788 L 2209.9623,315.09489 z "
         style="fill:#412407;fill-opacity:1;fill-rule:evenodd;stroke:none;stroke-width:1px;stroke-linecap:butt;stroke-linejoin:miter;stroke-opacity:1" />
      <path
         id="path10591"
         d="M 2200.8298,323.40138 L 2186.4726,320.92577 L 2190.0938,389.57819 L 2204.5184,394.74209 L 2200.8298,323.40138 z "
         style="fill:#512d09;fill-opacity:1;fill-rule:evenodd;stroke:none;stroke-width:1px;stroke-linecap:butt;stroke-linejoin:miter;stroke-opacity:1" />
      <path
         sodipodi:nodetypes="ccccc"
         id="path10593"
         d="M 2117.1286,310.97681 L 2105.079,309.31209 L 2105.6742,371.28616 L 2120.4257,374.28093 L 2117.1286,310.97681 z "
         style="fill:#512d09;fill-opacity:1;fill-rule:evenodd;stroke:none;stroke-width:1px;stroke-linecap:butt;stroke-linejoin:miter;stroke-opacity:1" />
      <path
         id="path10595"
         d="M 2240.9273,285.88266 L 2150.7076,278.40596 L 2164.6787,222.61533 L 2253.5867,220.74823 L 2240.9273,285.88266 z "
         style="opacity:1;color:#000000;fill:url(#linearGradient5980);fill-opacity:1;fill-rule:evenodd;stroke:none;stroke-width:1px;stroke-linecap:butt;stroke-linejoin:miter;marker:none;marker-start:none;marker-mid:none;marker-end:none;stroke-miterlimit:4;stroke-dasharray:none;stroke-dashoffset:0;stroke-opacity:1;visibility:visible;display:inline;overflow:visible" />
      <path
         sodipodi:nodetypes="ccc"
         id="path10597"
         d="M 2154.1522,279.66182 L 2166.1947,223.34233 C 2189.4138,223.06095 2207.3401,268.87295 2154.1522,279.66182 z "
         style="opacity:1;color:#000000;fill:#1f130a;fill-opacity:1;fill-rule:evenodd;stroke:none;stroke-width:1px;stroke-linecap:butt;stroke-linejoin:miter;marker:none;marker-start:none;marker-mid:none;marker-end:none;stroke-miterlimit:4;stroke-dasharray:none;stroke-dashoffset:0;stroke-opacity:1;visibility:visible;display:inline;overflow:visible" />
      <path
         id="path10599"
         d="M 2149.568,277.48774 L 2240.57,288.5416 L 2201.0322,323.55363 L 2104.9818,309.82419 L 2149.568,277.48774 z M 2152.2907,280.54314 L 2113.6852,306.75763 L 2200.3379,319.43885 L 2231.837,290.41623 L 2152.2907,280.54314 z "
         style="fill:#523e2c;fill-opacity:1;fill-rule:evenodd;stroke:none;stroke-width:1px;stroke-linecap:butt;stroke-linejoin:miter;stroke-opacity:1" />
      <path
         sodipodi:nodetypes="ccc"
         id="path10601"
         d="M 2241.1891,285.57089 L 2253.9643,221.782 C 2278.7757,221.69362 2298.0077,273.85711 2241.1891,285.57089 z "
         style="opacity:1;color:#000000;fill:url(#linearGradient5982);fill-opacity:1;fill-rule:evenodd;stroke:none;stroke-width:1px;stroke-linecap:butt;stroke-linejoin:miter;marker:none;marker-start:none;marker-mid:none;marker-end:none;stroke-miterlimit:4;stroke-dasharray:none;stroke-dashoffset:0;stroke-opacity:1;visibility:visible;display:inline;overflow:visible" />
      <path
         id="path10603"
         d="M 2162.6892,218.53781 L 2255.1398,217.78884 L 2241.5328,288.77521 L 2148.2502,277.40177 L 2162.6892,218.53781 z M 2166.585,223.68431 L 2155.488,275.49922 L 2239.5637,284.72542 L 2252.2435,221.49688 L 2166.585,223.68431 z "
         style="opacity:1;color:#000000;fill:#523e2c;fill-opacity:1;fill-rule:evenodd;stroke:none;stroke-width:1px;stroke-linecap:butt;stroke-linejoin:miter;marker:none;marker-start:none;marker-mid:none;marker-end:none;stroke-miterlimit:4;stroke-dasharray:none;stroke-dashoffset:0;stroke-opacity:1;visibility:visible;display:inline;overflow:visible" />
      <path
         id="path10605"
         d="M 2253.9498,217.80951 C 2293.0716,230.7188 2284.7963,281.3881 2240.5442,288.38661 L 2253.9498,217.80951 z M 2255.105,224.25722 L 2244.2292,281.34746 C 2280.0263,275.68613 2286.7519,234.69997 2255.105,224.25722 z "
         style="opacity:1;color:#000000;fill:#523e2c;fill-opacity:1;fill-rule:evenodd;stroke:none;stroke-width:1px;stroke-linecap:butt;stroke-linejoin:miter;marker:none;marker-start:none;marker-mid:none;marker-end:none;stroke-miterlimit:4;stroke-dasharray:none;stroke-dashoffset:0;stroke-opacity:1;visibility:visible;display:inline;overflow:visible" />
      <path
         sodipodi:nodetypes="ccccc"
         id="path10607"
         d="M 2223.2119,283.76274 C 2221.4465,284.96083 2220.7421,286.73984 2220.2714,288.6466 L 2211.3709,287.24517 C 2209.3456,286.62045 2211.7567,282.45925 2213.8384,282.77397 L 2223.2119,283.76274 z "
         style="fill:#917f6e;fill-opacity:1;fill-rule:evenodd;stroke:none;stroke-width:1px;stroke-linecap:butt;stroke-linejoin:miter;stroke-opacity:1" />
      <path
         transform="matrix(-0.218358,-0.403392,-0.436371,0.586973,2806.028,1041.859)"
         sodipodi:open="true"
         sodipodi:end="9.8998895"
         sodipodi:start="3.6184187"
         d="M 2209.0603,230.97435 A 3.1114354,3.7201946 0 1 1 2209.0579,230.98002"
         sodipodi:ry="3.7201946"
         sodipodi:rx="3.1114354"
         sodipodi:cy="232.68178"
         sodipodi:cx="2211.8247"
         id="path10609"
         style="opacity:1;color:#000000;fill:#b3a69a;fill-opacity:1;fill-rule:evenodd;stroke:none;stroke-width:1px;stroke-linecap:butt;stroke-linejoin:miter;marker:none;marker-start:none;marker-mid:none;marker-end:none;stroke-miterlimit:4;stroke-dasharray:none;stroke-dashoffset:0;stroke-opacity:1;visibility:visible;display:inline;overflow:visible"
         sodipodi:type="arc" />
      <path
         sodipodi:nodetypes="ccccc"
         id="path10611"
         d="M 2176.7653,278.10803 C 2174.9997,279.30612 2174.2956,281.0851 2173.8247,282.99189 L 2164.9245,281.59041 C 2162.8991,280.96573 2165.3102,276.80451 2167.3918,277.11925 L 2176.7653,278.10803 z "
         style="fill:#917f6e;fill-opacity:1;fill-rule:evenodd;stroke:none;stroke-width:1px;stroke-linecap:butt;stroke-linejoin:miter;stroke-opacity:1" />
      <path
         transform="matrix(-0.218358,-0.403392,-0.436371,0.586973,2759.582,1036.204)"
         sodipodi:open="true"
         sodipodi:end="9.8998895"
         sodipodi:start="3.6184187"
         d="M 2209.0603,230.97435 A 3.1114354,3.7201946 0 1 1 2209.0579,230.98002"
         sodipodi:ry="3.7201946"
         sodipodi:rx="3.1114354"
         sodipodi:cy="232.68178"
         sodipodi:cx="2211.8247"
         id="path10613"
         style="opacity:1;color:#000000;fill:#b3a69a;fill-opacity:1;fill-rule:evenodd;stroke:none;stroke-width:1px;stroke-linecap:butt;stroke-linejoin:miter;marker:none;marker-start:none;marker-mid:none;marker-end:none;stroke-miterlimit:4;stroke-dasharray:none;stroke-dashoffset:0;stroke-opacity:1;visibility:visible;display:inline;overflow:visible"
         sodipodi:type="arc" />
      <path
         sodipodi:nodetypes="csss"
         id="path10615"
         d="M 2136.9001,326.56501 C 2145.4392,323.92715 2157.2411,324.94893 2165.3492,331.43574 C 2169.7677,334.97076 2168.5612,359.31437 2151.7365,356.60118 C 2136.7197,354.18041 2131.2073,328.32362 2136.9001,326.56501 z "
         style="fill:url(#radialGradient5984);fill-opacity:1;fill-rule:evenodd;stroke:none;stroke-width:0.83002061px;stroke-linecap:butt;stroke-linejoin:miter;stroke-opacity:1" />
      <path
         id="path10617"
         d="M 2150.0997,332.32004 C 2148.8546,332.13759 2147.665,332.62797 2147.0535,333.70913 L 2147.0484,333.7134 C 2146.1753,335.26455 2146.8248,337.45113 2148.4922,338.63965 L 2145.1593,346.16005 L 2155.1886,347.84007 L 2152.2295,339.03019 C 2152.6619,338.79056 2153.0278,338.43608 2153.2892,337.9739 C 2154.1785,336.4013 2153.5056,334.16899 2151.784,332.99128 C 2151.2461,332.62324 2150.6657,332.40297 2150.0997,332.32004 z "
         style="opacity:1;color:#000000;fill:#000000;fill-opacity:1;fill-rule:evenodd;stroke:none;stroke-width:1px;stroke-linecap:butt;stroke-linejoin:miter;marker:none;marker-start:none;marker-mid:none;marker-end:none;stroke-miterlimit:4;stroke-dasharray:none;stroke-dashoffset:0;stroke-opacity:1;visibility:visible;display:inline;overflow:visible" />
    </g>
    <path
       style="fill:#492f17;fill-opacity:1;fill-rule:evenodd;stroke:#000000;stroke-width:6.37404823;stroke-linecap:round;stroke-linejoin:round;stroke-miterlimit:4;stroke-dasharray:none;stroke-opacity:1"
       d="M 355.67646,191.60969 L 267.74876,212.32529 C 259.52436,210.70229 251.87466,216.18019 248.22816,230.65069 L 247.43146,230.84989 L 248.19966,231.39049 L 250.30546,308.22049 L 263.45186,317.12719 L 263.45186,316.87099 L 289.71646,334.59889 L 299.44826,341.74129 L 299.30596,339.26559 L 299.33446,339.26559 L 299.53356,342.56649 L 314.67196,335.19639 L 314.61506,334.28579 L 388.94106,310.04169 L 388.94106,310.15549 L 404.70536,305.11889 L 403.85176,296.58229 C 403.55516,292.31049 403.17586,287.77809 402.79886,285.71219 L 402.96956,285.65529 L 401.03466,265.25269 L 400.72156,265.33799 L 397.98986,237.90689 L 398.10366,237.87839 L 397.98986,237.82149 L 397.93306,237.33779 L 397.39236,237.48009 L 397.07926,237.30929 L 397.64836,237.16699 C 396.48876,215.31589 383.04706,193.31289 355.67646,191.60969 z "
       id="path5842"
       sodipodi:nodetypes="ccccccccccccccccccccccccccccccc" />
    <g
       id="g10723"
       transform="matrix(-1.810324,0.198335,0.198335,1.810324,2505.2101,-2531.8429)">
      <g
         transform="matrix(-0.599018,8.971301e-2,1.513261e-2,0.60573,2706.852,1032.483)"
         id="g10627">
        <path
           style="fill:#492f17;fill-opacity:1;fill-rule:evenodd;stroke:none;stroke-width:1px;stroke-linecap:butt;stroke-linejoin:miter;stroke-opacity:1"
           d="M 2193.8038,238.64448 L 2281.4258,215.49543 L 2281.4258,259.68908 L 2232.0666,280.35105 L 2193.8038,238.64448 z "
           id="path10629"
           sodipodi:nodetypes="ccccc" />
        <rect
           transform="matrix(0.828449,0.560064,0,1,0,0)"
           inkscape:transform-center-x="-3.2311253"
           inkscape:transform-center-y="15.964748"
           y="-1198.7236"
           x="2643.605"
           height="27.069538"
           width="47.81879"
           id="rect10631"
           style="opacity:1;color:#000000;fill:#85552b;fill-opacity:1;fill-rule:evenodd;stroke:none;stroke-width:1.03762949;stroke-linecap:round;stroke-linejoin:round;marker:none;marker-start:none;marker-mid:none;marker-end:none;stroke-miterlimit:4;stroke-dasharray:none;stroke-dashoffset:0;stroke-opacity:1;visibility:visible;display:inline;overflow:visible" />
        <rect
           transform="matrix(0.850605,0.525805,0,1,0,0)"
           inkscape:transform-center-x="-3.2360271"
           inkscape:transform-center-y="14.61411"
           y="-1093.8655"
           x="2576.1096"
           height="24.332253"
           width="46.243191"
           id="rect10633"
           style="opacity:1;color:#000000;fill:#684322;fill-opacity:1;fill-rule:evenodd;stroke:none;stroke-width:0.9803158;stroke-linecap:round;stroke-linejoin:round;marker:none;marker-start:none;marker-mid:none;marker-end:none;stroke-miterlimit:4;stroke-dasharray:none;stroke-dashoffset:0;stroke-opacity:1;visibility:visible;display:inline;overflow:visible" />
        <rect
           style="opacity:1;color:#000000;fill:#784d27;fill-opacity:1;fill-rule:evenodd;stroke:none;stroke-width:0.9803158;stroke-linecap:round;stroke-linejoin:round;marker:none;marker-start:none;marker-mid:none;marker-end:none;stroke-miterlimit:4;stroke-dasharray:none;stroke-dashoffset:0;stroke-opacity:1;visibility:visible;display:inline;overflow:visible"
           id="rect10635"
           width="45.677303"
           height="23.925718"
           x="2578.0959"
           y="-1117.3481"
           inkscape:transform-center-y="14.614086"
           inkscape:transform-center-x="-3.235976"
           transform="matrix(0.850605,0.525805,0,1,0,0)" />
        <path
           style="fill:#5e3c1e;fill-opacity:1;fill-rule:evenodd;stroke:none;stroke-width:1px;stroke-linecap:butt;stroke-linejoin:miter;stroke-opacity:1"
           d="M 2230.1535,334.68438 L 2328.8718,299.48251 C 2328.8718,299.48251 2329.4457,280.925 2328.6805,280.925 C 2327.9152,280.925 2229.3882,314.40504 2229.3882,314.40504 L 2230.1535,334.68438 z "
           id="path10637"
           sodipodi:nodetypes="ccscc" />
        <path
           style="fill:#674221;fill-opacity:1;fill-rule:evenodd;stroke:none;stroke-width:1px;stroke-linecap:butt;stroke-linejoin:miter;stroke-opacity:1"
           d="M 2230.3448,314.59635 L 2329.0631,281.88157 L 2328.8718,263.32406 L 2230.1534,293.55175 L 2230.3448,314.59635 z "
           id="path10639"
           sodipodi:nodetypes="ccccc" />
        <path
           sodipodi:nodetypes="cccc"
           style="fill:#1f130a;fill-opacity:1;fill-rule:evenodd;stroke:none;stroke-width:1px;stroke-linecap:butt;stroke-linejoin:miter;stroke-opacity:1"
           d="M 2280.6605,216.26069 L 2280.6605,267.72429 L 2325.2368,239.79238 L 2280.6605,216.26069 z "
           id="path10641" />
        <path
           style="fill:#794e27;fill-opacity:1;fill-rule:evenodd;stroke:none;stroke-width:1px;stroke-linecap:butt;stroke-linejoin:miter;stroke-opacity:1"
           d="M 2230.1535,294.89096 L 2231.1101,278.62922 L 2327.1499,250.6973 L 2325.8108,272.69848 L 2230.1535,294.89096 z "
           id="path10643"
           sodipodi:nodetypes="ccccc" />
        <path
           style="fill:#6b4523;fill-opacity:1;fill-rule:evenodd;stroke:none;stroke-width:1px;stroke-linecap:butt;stroke-linejoin:miter;stroke-opacity:1"
           d="M 2231.4926,279.5858 L 2231.684,263.32406 L 2327.7239,238.26186 L 2327.1499,252.99308 L 2231.4926,279.5858 z "
           id="path10645"
           sodipodi:nodetypes="ccccc" />
      </g>
      <path
         sodipodi:nodetypes="ccccc"
         id="path10647"
         d="M 1397.1805,1373.083 L 1391.4458,1378.3619 L 1394.0068,1421.0162 L 1400.6524,1415.3682 L 1397.1805,1373.083 z "
         style="fill:#412407;fill-opacity:1;fill-rule:evenodd;stroke:none;stroke-width:1px;stroke-linecap:butt;stroke-linejoin:miter;stroke-opacity:1" />
      <path
         sodipodi:nodetypes="ccccc"
         id="path10649"
         d="M 1379.1157,1388.9906 L 1373.381,1394.2696 L 1375.8188,1436.5934 L 1382.2294,1430.7479 L 1379.1157,1388.9906 z "
         style="fill:#412407;fill-opacity:1;fill-rule:evenodd;stroke:none;stroke-width:1px;stroke-linecap:butt;stroke-linejoin:miter;stroke-opacity:1" />
      <path
         id="path10651"
         d="M 1373.6043,1394.0035 L 1364.9399,1392.5095 L 1367.1253,1433.9405 L 1375.8304,1437.0569 L 1373.6043,1394.0035 z "
         style="fill:#512d09;fill-opacity:1;fill-rule:evenodd;stroke:none;stroke-width:1px;stroke-linecap:butt;stroke-linejoin:miter;stroke-opacity:1" />
      <path
         sodipodi:nodetypes="ccccc"
         id="path10653"
         d="M 1323.0915,1386.5054 L 1315.8197,1385.5008 L 1316.1789,1422.9015 L 1325.0813,1424.7088 L 1323.0915,1386.5054 z "
         style="fill:#512d09;fill-opacity:1;fill-rule:evenodd;stroke:none;stroke-width:1px;stroke-linecap:butt;stroke-linejoin:miter;stroke-opacity:1" />
      <path
         sodipodi:nodetypes="csss"
         id="path10675"
         d="M 1335.0234,1395.9127 C 1340.1767,1394.3208 1347.299,1394.9374 1352.1921,1398.8522 C 1354.8587,1400.9855 1354.1306,1415.6766 1343.977,1414.0392 C 1334.9145,1412.5783 1331.5879,1396.974 1335.0234,1395.9127 z "
         style="fill:url(#radialGradient5986);fill-opacity:1;fill-rule:evenodd;stroke:none;stroke-width:0.83002061px;stroke-linecap:butt;stroke-linejoin:miter;stroke-opacity:1" />
      <path
         id="path10677"
         d="M 1342.9892,1399.3858 C 1342.2378,1399.2757 1341.5199,1399.5717 1341.1509,1400.2241 L 1341.1478,1400.2267 C 1340.6209,1401.1628 1341.0129,1402.4824 1342.0191,1403.1996 L 1340.0077,1407.7381 L 1346.0603,1408.752 L 1344.2745,1403.4353 C 1344.5355,1403.2907 1344.7563,1403.0768 1344.9141,1402.7979 C 1345.4507,1401.8488 1345.0447,1400.5016 1344.0057,1399.7909 C 1343.6811,1399.5688 1343.3308,1399.4359 1342.9892,1399.3858 z "
         style="color:#000000;fill:#000000;fill-opacity:1;fill-rule:evenodd;stroke:none;stroke-width:1px;stroke-linecap:butt;stroke-linejoin:miter;marker:none;marker-start:none;marker-mid:none;marker-end:none;stroke-miterlimit:4;stroke-dasharray:none;stroke-dashoffset:0;stroke-opacity:1;visibility:visible;display:inline;overflow:visible" />
      <path
         id="path10659"
         d="M 1342.6684,1366.2951 L 1397.5871,1372.966 L 1373.7265,1394.0954 L 1315.761,1385.8098 L 1342.6684,1366.2951 z M 1344.3115,1368.139 L 1321.0134,1383.9592 L 1373.3075,1391.6122 L 1392.3169,1374.0973 L 1344.3115,1368.139 z "
         style="fill:#523e2c;fill-opacity:1;fill-rule:evenodd;stroke:none;stroke-width:1px;stroke-linecap:butt;stroke-linejoin:miter;stroke-opacity:1" />
      <path
         sodipodi:nodetypes="ccccc"
         id="path10655"
         d="M 1387.6433,1364.3383 L 1336.1589,1358.0191 C 1321.3209,1360.5856 1315.3014,1373.396 1315.9751,1385.3925 L 1373.2385,1392.3369 L 1387.6433,1364.3383 z "
         style="color:#000000;fill:url(#linearGradient5988);fill-opacity:1;fill-rule:evenodd;stroke:none;stroke-width:1px;stroke-linecap:butt;stroke-linejoin:miter;marker:none;marker-start:none;marker-mid:none;marker-end:none;stroke-miterlimit:4;stroke-dasharray:none;stroke-dashoffset:0;stroke-opacity:1;visibility:visible;display:inline;overflow:visible" />
      <path
         sodipodi:nodetypes="ccc"
         id="path10661"
         d="M 1373.2113,1392.094 L 1395.7262,1373.8528 C 1394.256,1359.7581 1374.1142,1357.4838 1373.2113,1392.094 z "
         style="color:#000000;fill:url(#linearGradient5990);fill-opacity:1;fill-rule:evenodd;stroke:none;stroke-width:1px;stroke-linecap:butt;stroke-linejoin:miter;marker:none;marker-start:none;marker-mid:none;marker-end:none;stroke-miterlimit:4;stroke-dasharray:none;stroke-dashoffset:0;stroke-opacity:1;visibility:visible;display:inline;overflow:visible" />
      <path
         sodipodi:nodetypes="cccccc"
         id="path10665"
         d="M 1397.2006,1373.0558 C 1390.0422,1353.4767 1372.2702,1366.729 1372.355,1393.2539 L 1397.2006,1373.0558 z M 1394.739,1373.7073 L 1374.2215,1391.4493 C 1374.1528,1369.9924 1388.9483,1357.8691 1394.739,1373.7073 z "
         style="color:#000000;fill:#523e2c;fill-opacity:1;fill-rule:evenodd;stroke:none;stroke-width:1px;stroke-linecap:butt;stroke-linejoin:miter;marker:none;marker-start:none;marker-mid:none;marker-end:none;stroke-miterlimit:4;stroke-dasharray:none;stroke-dashoffset:0;stroke-opacity:1;visibility:visible;display:inline;overflow:visible" />
    </g>
  </g>
</svg>
